<svg xmlns="http://www.w3.org/2000/svg" viewBox="0 0 64 64" role="img" aria-label="Shaykh Abdullah Faisal Archive">
  <defs>
    <linearGradient id="gold" x1="0%" y1="0%" x2="100%" y2="100%">
      <stop offset="0%" stop-color="#e8c97a"/>
      <stop offset="50%" stop-color="#d4a853"/>
      <stop offset="100%" stop-color="#b8923f"/>
    </linearGradient>
  </defs>
  <rect width="64" height="64" rx="14" fill="#080d18"/>
  <rect x="2" y="2" width="60" height="60" rx="12" fill="none" stroke="url(#gold)" stroke-width="1.5" opacity="0.55"/>
  <path fill="url(#gold)" d="M38.5 18.2c-7.8 0-14.1 5.6-14.1 12.5 0 6.9 6.3 12.5 14.1 12.5 1.4 0 2.8-.2 4.1-.5-2.8 3.4-7 5.6-11.8 5.6-8.4 0-15.2-6.4-15.2-14.3S26.4 19.7 34.8 19.7c4.4 0 8.3 1.8 11 4.7-2.5-.9-5.2-1.4-7.3-1.4z"/>
  <circle cx="44.5" cy="21.5" r="2.4" fill="url(#gold)"/>
</svg>